<?xml version="1.0" standalone="no"?>
 <!DOCTYPE svg PUBLIC "-//W3C//DTD SVG 1.1//EN" 
 "http://www.w3.org/Graphics/SVG/1.1/DTD/svg11.dtd"> 
<svg
  xmlns:svg="http://www.w3.org/2000/svg"
  xmlns="http://www.w3.org/2000/svg"
  xmlns:xlink="http://www.w3.org/1999/xlink"
  version="1.1"
  width="297.0022mm" height="210.0072mm" viewBox="0.0000 0.0000 297.0022 210.0072">
<title>SVG Image created as subsheets-subsheet2.svg date 2024/04/14 20:53:38 </title>
  <desc>Image generated by Eeschema-SVG </desc>
<g style="fill:#000000; fill-opacity:1.0000;stroke:#000000; stroke-opacity:1.0000;
stroke-linecap:round; stroke-linejoin:round;"
 transform="translate(0 0) scale(1 1)">
</g>
<g style="fill:#000000; fill-opacity:0.0; 
stroke:#000000; stroke-width:0.1524; stroke-opacity:1; 
stroke-linecap:round; stroke-linejoin:round;">
</g>
<g style="fill:#000000; fill-opacity:0.0; 
stroke:#000000; stroke-width:0.1588; stroke-opacity:1; 
stroke-linecap:round; stroke-linejoin:round;">
</g>
<g style="fill:#000000; fill-opacity:0.0; 
stroke:#000000; stroke-width:0.1524; stroke-opacity:1; 
stroke-linecap:round; stroke-linejoin:round;">
</g>
<g style="fill:#000000; fill-opacity:0.0; 
stroke:#000000; stroke-width:0.1588; stroke-opacity:1; 
stroke-linecap:round; stroke-linejoin:round;">
</g>
<g style="fill:#000000; fill-opacity:0.0; 
stroke:#000000; stroke-width:0.1524; stroke-opacity:1; 
stroke-linecap:round; stroke-linejoin:round;">
</g>
<g style="fill:#000000; fill-opacity:0.0; 
stroke:#000000; stroke-width:0.1588; stroke-opacity:1; 
stroke-linecap:round; stroke-linejoin:round;">
</g>
<g style="fill:#000000; fill-opacity:0.0; 
stroke:#000000; stroke-width:0.1524; stroke-opacity:1; 
stroke-linecap:round; stroke-linejoin:round;">
<g >
</g>
<g style="fill:#840000; fill-opacity:0.0; 
stroke:#840000; stroke-width:0.1524; stroke-opacity:1; 
stroke-linecap:round; stroke-linejoin:round;">
</g>
<g style="fill:#840000; fill-opacity:0.0; 
stroke:#840000; stroke-width:0.5080; stroke-opacity:1; 
stroke-linecap:round; stroke-linejoin:round;">
<path style="fill:#840000; fill-opacity:0.0; 
stroke:#840000; stroke-width:0.5080; stroke-opacity:1; 
stroke-linecap:round; stroke-linejoin:round;fill:none"
d="M 137.6680,97.2820
141.7320,97.2820
" /> 
<path style="fill:#840000; fill-opacity:0.0; 
stroke:#840000; stroke-width:0.5080; stroke-opacity:1; 
stroke-linecap:round; stroke-linejoin:round;fill:none"
d="M 137.6680,95.7580
141.7320,95.7580
" /> 
</g>
<g style="fill:#840000; fill-opacity:0.0; 
stroke:#840000; stroke-width:0.1524; stroke-opacity:1; 
stroke-linecap:round; stroke-linejoin:round;">
<path d="M139.7000 95.5040
L139.7000 92.7100
" />
<path d="M139.7000 97.5360
L139.7000 100.3300
" />
</g>
<g style="fill:#006464; fill-opacity:0.0; 
stroke:#006464; stroke-width:0.1524; stroke-opacity:1; 
stroke-linecap:round; stroke-linejoin:round;">
<text x="143.9719" y="96.5605"
textLength="2.6827" font-size="1.6933" lengthAdjust="spacingAndGlyphs"
text-anchor="middle" opacity="0">C3</text>
<g class="stroked-text"><desc>C3</desc>
<path d="M143.7602 96.3841
L143.6998 96.4446
" />
<path d="M143.6998 96.4446
L143.5183 96.5050
" />
<path d="M143.5183 96.5050
L143.3974 96.5050
" />
<path d="M143.3974 96.5050
L143.2160 96.4446
" />
<path d="M143.2160 96.4446
L143.0950 96.3236
" />
<path d="M143.0950 96.3236
L143.0345 96.2026
" />
<path d="M143.0345 96.2026
L142.9741 95.9607
" />
<path d="M142.9741 95.9607
L142.9741 95.7793
" />
<path d="M142.9741 95.7793
L143.0345 95.5374
" />
<path d="M143.0345 95.5374
L143.0950 95.4165
" />
<path d="M143.0950 95.4165
L143.2160 95.2955
" />
<path d="M143.2160 95.2955
L143.3974 95.2350
" />
<path d="M143.3974 95.2350
L143.5183 95.2350
" />
<path d="M143.5183 95.2350
L143.6998 95.2955
" />
<path d="M143.6998 95.2955
L143.7602 95.3560
" />
<path d="M144.1836 95.2350
L144.9698 95.2350
" />
<path d="M144.9698 95.2350
L144.5464 95.7188
" />
<path d="M144.5464 95.7188
L144.7279 95.7188
" />
<path d="M144.7279 95.7188
L144.8488 95.7793
" />
<path d="M144.8488 95.7793
L144.9093 95.8398
" />
<path d="M144.9093 95.8398
L144.9698 95.9607
" />
<path d="M144.9698 95.9607
L144.9698 96.2631
" />
<path d="M144.9698 96.2631
L144.9093 96.3841
" />
<path d="M144.9093 96.3841
L144.8488 96.4446
" />
<path d="M144.8488 96.4446
L144.7279 96.5050
" />
<path d="M144.7279 96.5050
L144.3650 96.5050
" />
<path d="M144.3650 96.5050
L144.2441 96.4446
" />
<path d="M144.2441 96.4446
L144.1836 96.3841
" />
</g><text x="144.5162" y="98.3227"
textLength="3.7712" font-size="1.6933" lengthAdjust="spacingAndGlyphs"
text-anchor="middle" opacity="0">10u</text>
<g class="stroked-text"><desc>10u</desc>
<path d="M143.6998 98.2672
L142.9741 98.2672
" />
<path d="M143.3369 98.2672
L143.3369 96.9972
" />
<path d="M143.3369 96.9972
L143.2160 97.1787
" />
<path d="M143.2160 97.1787
L143.0950 97.2996
" />
<path d="M143.0950 97.2996
L142.9741 97.3601
" />
<path d="M144.4859 96.9972
L144.6069 96.9972
" />
<path d="M144.6069 96.9972
L144.7278 97.0577
" />
<path d="M144.7278 97.0577
L144.7883 97.1182
" />
<path d="M144.7883 97.1182
L144.8488 97.2391
" />
<path d="M144.8488 97.2391
L144.9093 97.4810
" />
<path d="M144.9093 97.4810
L144.9093 97.7834
" />
<path d="M144.9093 97.7834
L144.8488 98.0253
" />
<path d="M144.8488 98.0253
L144.7883 98.1463
" />
<path d="M144.7883 98.1463
L144.7278 98.2068
" />
<path d="M144.7278 98.2068
L144.6069 98.2672
" />
<path d="M144.6069 98.2672
L144.4859 98.2672
" />
<path d="M144.4859 98.2672
L144.3650 98.2068
" />
<path d="M144.3650 98.2068
L144.3045 98.1463
" />
<path d="M144.3045 98.1463
L144.2440 98.0253
" />
<path d="M144.2440 98.0253
L144.1836 97.7834
" />
<path d="M144.1836 97.7834
L144.1836 97.4810
" />
<path d="M144.1836 97.4810
L144.2440 97.2391
" />
<path d="M144.2440 97.2391
L144.3045 97.1182
" />
<path d="M144.3045 97.1182
L144.3650 97.0577
" />
<path d="M144.3650 97.0577
L144.4859 96.9972
" />
<path d="M145.9978 97.4206
L145.9978 98.2672
" />
<path d="M145.4535 97.4206
L145.4535 98.0858
" />
<path d="M145.4535 98.0858
L145.5140 98.2068
" />
<path d="M145.5140 98.2068
L145.6350 98.2672
" />
<path d="M145.6350 98.2672
L145.8164 98.2672
" />
<path d="M145.8164 98.2672
L145.9373 98.2068
" />
<path d="M145.9373 98.2068
L145.9978 98.1463
" />
</g></g>
</g>
<g style="fill:#006464; fill-opacity:0.0; 
stroke:#006464; stroke-width:0.1524; stroke-opacity:1; 
stroke-linecap:round; stroke-linejoin:round;">
<g >
</g>
<g style="fill:#840000; fill-opacity:0.0; 
stroke:#840000; stroke-width:0.1524; stroke-opacity:1; 
stroke-linecap:round; stroke-linejoin:round;">
</g>
<g style="fill:#840000; fill-opacity:0.0; 
stroke:#840000; stroke-width:0.2540; stroke-opacity:1; 
stroke-linecap:round; stroke-linejoin:round;">
<rect x="144.780000" y="87.884000" width="5.080000" height="2.032000" rx="0.000000" />
</g>
<g style="fill:#840000; fill-opacity:0.0; 
stroke:#840000; stroke-width:0.1524; stroke-opacity:1; 
stroke-linecap:round; stroke-linejoin:round;">
<path d="M144.7800 88.9000
L143.5100 88.9000
" />
<path d="M149.8600 88.9000
L151.1300 88.9000
" />
</g>
<g style="fill:#006464; fill-opacity:0.0; 
stroke:#006464; stroke-width:0.1524; stroke-opacity:1; 
stroke-linecap:round; stroke-linejoin:round;">
<text x="147.3199" y="85.6869"
textLength="2.6827" font-size="1.6933" lengthAdjust="spacingAndGlyphs"
text-anchor="middle" opacity="0">R7</text>
<g class="stroked-text"><desc>R7</desc>
<path d="M147.1082 85.6314
L146.6849 85.0267
" />
<path d="M146.3825 85.6314
L146.3825 84.3614
" />
<path d="M146.3825 84.3614
L146.8663 84.3614
" />
<path d="M146.8663 84.3614
L146.9873 84.4219
" />
<path d="M146.9873 84.4219
L147.0478 84.4824
" />
<path d="M147.0478 84.4824
L147.1082 84.6033
" />
<path d="M147.1082 84.6033
L147.1082 84.7848
" />
<path d="M147.1082 84.7848
L147.0478 84.9057
" />
<path d="M147.0478 84.9057
L146.9873 84.9662
" />
<path d="M146.9873 84.9662
L146.8663 85.0267
" />
<path d="M146.8663 85.0267
L146.3825 85.0267
" />
<path d="M147.5316 84.3614
L148.3782 84.3614
" />
<path d="M148.3782 84.3614
L147.8340 85.6314
" />
</g><text x="147.3199" y="87.4491"
textLength="2.6827" font-size="1.6933" lengthAdjust="spacingAndGlyphs"
text-anchor="middle" opacity="0">1K</text>
<g class="stroked-text"><desc>1K</desc>
<path d="M147.0478 87.3936
L146.3221 87.3936
" />
<path d="M146.6849 87.3936
L146.6849 86.1236
" />
<path d="M146.6849 86.1236
L146.5640 86.3051
" />
<path d="M146.5640 86.3051
L146.4430 86.4260
" />
<path d="M146.4430 86.4260
L146.3221 86.4865
" />
<path d="M147.5920 87.3936
L147.5920 86.1236
" />
<path d="M148.3177 87.3936
L147.7735 86.6679
" />
<path d="M148.3177 86.1236
L147.5920 86.8493
" />
</g></g>
</g>
<g style="fill:#006464; fill-opacity:0.0; 
stroke:#006464; stroke-width:0.1524; stroke-opacity:1; 
stroke-linecap:round; stroke-linejoin:round;">
<g >
</g>
<g style="fill:#840000; fill-opacity:0.0; 
stroke:#840000; stroke-width:0.1524; stroke-opacity:1; 
stroke-linecap:round; stroke-linejoin:round;">
<path style="fill:#840000; fill-opacity:0.0; 
stroke:#840000; stroke-width:0.1524; stroke-opacity:1; 
stroke-linecap:round; stroke-linejoin:round;fill:none"
d="M 139.7000,101.6000
139.7000,102.8700
140.9700,102.8700
139.7000,104.1400
138.4300,102.8700
139.7000,102.8700
" /> 
</g>
<g style="fill:#006464; fill-opacity:0.0; 
stroke:#006464; stroke-width:0.1524; stroke-opacity:1; 
stroke-linecap:round; stroke-linejoin:round;">
<text x="139.7000" y="106.0450"
textLength="4.0737" font-size="1.6933" lengthAdjust="spacingAndGlyphs"
text-anchor="middle" opacity="0">GND</text>
<g class="stroked-text"><desc>GND</desc>
<path d="M138.7324 104.7800
L138.6114 104.7195
" />
<path d="M138.6114 104.7195
L138.4300 104.7195
" />
<path d="M138.4300 104.7195
L138.2486 104.7800
" />
<path d="M138.2486 104.7800
L138.1276 104.9010
" />
<path d="M138.1276 104.9010
L138.0671 105.0219
" />
<path d="M138.0671 105.0219
L138.0067 105.2638
" />
<path d="M138.0067 105.2638
L138.0067 105.4452
" />
<path d="M138.0067 105.4452
L138.0671 105.6871
" />
<path d="M138.0671 105.6871
L138.1276 105.8081
" />
<path d="M138.1276 105.8081
L138.2486 105.9291
" />
<path d="M138.2486 105.9291
L138.4300 105.9895
" />
<path d="M138.4300 105.9895
L138.5509 105.9895
" />
<path d="M138.5509 105.9895
L138.7324 105.9291
" />
<path d="M138.7324 105.9291
L138.7928 105.8686
" />
<path d="M138.7928 105.8686
L138.7928 105.4452
" />
<path d="M138.7928 105.4452
L138.5509 105.4452
" />
<path d="M139.3371 105.9895
L139.3371 104.7195
" />
<path d="M139.3371 104.7195
L140.0628 105.9895
" />
<path d="M140.0628 105.9895
L140.0628 104.7195
" />
<path d="M140.6676 105.9895
L140.6676 104.7195
" />
<path d="M140.6676 104.7195
L140.9700 104.7195
" />
<path d="M140.9700 104.7195
L141.1514 104.7800
" />
<path d="M141.1514 104.7800
L141.2724 104.9010
" />
<path d="M141.2724 104.9010
L141.3329 105.0219
" />
<path d="M141.3329 105.0219
L141.3933 105.2638
" />
<path d="M141.3933 105.2638
L141.3933 105.4452
" />
<path d="M141.3933 105.4452
L141.3329 105.6871
" />
<path d="M141.3329 105.6871
L141.2724 105.8081
" />
<path d="M141.2724 105.8081
L141.1514 105.9291
" />
<path d="M141.1514 105.9291
L140.9700 105.9895
" />
<path d="M140.9700 105.9895
L140.6676 105.9895
" />
</g></g>
</g>
<g style="fill:#006464; fill-opacity:0.0; 
stroke:#006464; stroke-width:0.1524; stroke-opacity:1; 
stroke-linecap:round; stroke-linejoin:round;">
<g >
</g>
<g style="fill:#840000; fill-opacity:0.0; 
stroke:#840000; stroke-width:0.1524; stroke-opacity:1; 
stroke-linecap:round; stroke-linejoin:round;">
</g>
<g style="fill:#840000; fill-opacity:0.0; 
stroke:#840000; stroke-width:0.2540; stroke-opacity:1; 
stroke-linecap:round; stroke-linejoin:round;">
<rect x="141.224000" y="73.660000" width="2.032000" height="5.080000" rx="0.000000" />
</g>
<g style="fill:#840000; fill-opacity:0.0; 
stroke:#840000; stroke-width:0.1524; stroke-opacity:1; 
stroke-linecap:round; stroke-linejoin:round;">
<path d="M142.2400 78.7400
L142.2400 80.0100
" />
<path d="M142.2400 73.6600
L142.2400 72.3900
" />
</g>
<g style="fill:#006464; fill-opacity:0.0; 
stroke:#006464; stroke-width:0.1524; stroke-opacity:1; 
stroke-linecap:round; stroke-linejoin:round;">
<text x="145.3689" y="76.2405"
textLength="2.6827" font-size="1.6933" lengthAdjust="spacingAndGlyphs"
text-anchor="middle" opacity="0">R9</text>
<g class="stroked-text"><desc>R9</desc>
<path d="M145.1572 76.1850
L144.7339 75.5803
" />
<path d="M144.4315 76.1850
L144.4315 74.9150
" />
<path d="M144.4315 74.9150
L144.9153 74.9150
" />
<path d="M144.9153 74.9150
L145.0363 74.9755
" />
<path d="M145.0363 74.9755
L145.0968 75.0360
" />
<path d="M145.0968 75.0360
L145.1572 75.1569
" />
<path d="M145.1572 75.1569
L145.1572 75.3384
" />
<path d="M145.1572 75.3384
L145.0968 75.4593
" />
<path d="M145.0968 75.4593
L145.0363 75.5198
" />
<path d="M145.0363 75.5198
L144.9153 75.5803
" />
<path d="M144.9153 75.5803
L144.4315 75.5803
" />
<path d="M145.7620 76.1850
L146.0039 76.1850
" />
<path d="M146.0039 76.1850
L146.1249 76.1246
" />
<path d="M146.1249 76.1246
L146.1853 76.0641
" />
<path d="M146.1853 76.0641
L146.3063 75.8826
" />
<path d="M146.3063 75.8826
L146.3668 75.6407
" />
<path d="M146.3668 75.6407
L146.3668 75.1569
" />
<path d="M146.3668 75.1569
L146.3063 75.0360
" />
<path d="M146.3063 75.0360
L146.2458 74.9755
" />
<path d="M146.2458 74.9755
L146.1249 74.9150
" />
<path d="M146.1249 74.9150
L145.8830 74.9150
" />
<path d="M145.8830 74.9150
L145.7620 74.9755
" />
<path d="M145.7620 74.9755
L145.7015 75.0360
" />
<path d="M145.7015 75.0360
L145.6411 75.1569
" />
<path d="M145.6411 75.1569
L145.6411 75.4593
" />
<path d="M145.6411 75.4593
L145.7015 75.5803
" />
<path d="M145.7015 75.5803
L145.7620 75.6407
" />
<path d="M145.7620 75.6407
L145.8830 75.7012
" />
<path d="M145.8830 75.7012
L146.1249 75.7012
" />
<path d="M146.1249 75.7012
L146.2458 75.6407
" />
<path d="M146.2458 75.6407
L146.3063 75.5803
" />
<path d="M146.3063 75.5803
L146.3668 75.4593
" />
</g><text x="145.3689" y="78.0027"
textLength="2.6827" font-size="1.6933" lengthAdjust="spacingAndGlyphs"
text-anchor="middle" opacity="0">1K</text>
<g class="stroked-text"><desc>1K</desc>
<path d="M145.0968 77.9472
L144.3711 77.9472
" />
<path d="M144.7339 77.9472
L144.7339 76.6772
" />
<path d="M144.7339 76.6772
L144.6130 76.8587
" />
<path d="M144.6130 76.8587
L144.4920 76.9796
" />
<path d="M144.4920 76.9796
L144.3711 77.0401
" />
<path d="M145.6410 77.9472
L145.6410 76.6772
" />
<path d="M146.3667 77.9472
L145.8225 77.2215
" />
<path d="M146.3667 76.6772
L145.6410 77.4029
" />
</g></g>
</g>
<g style="fill:#006464; fill-opacity:0.0; 
stroke:#006464; stroke-width:0.1524; stroke-opacity:1; 
stroke-linecap:round; stroke-linejoin:round;">
<g >
</g>
<g style="fill:#840000; fill-opacity:0.0; 
stroke:#840000; stroke-width:0.1524; stroke-opacity:1; 
stroke-linecap:round; stroke-linejoin:round;">
</g>
<g style="fill:#840000; fill-opacity:0.0; 
stroke:#840000; stroke-width:0.2540; stroke-opacity:1; 
stroke-linecap:round; stroke-linejoin:round;">
<rect x="136.144000" y="73.660000" width="2.032000" height="5.080000" rx="0.000000" />
</g>
<g style="fill:#840000; fill-opacity:0.0; 
stroke:#840000; stroke-width:0.1524; stroke-opacity:1; 
stroke-linecap:round; stroke-linejoin:round;">
<path d="M137.1600 78.7400
L137.1600 80.0100
" />
<path d="M137.1600 73.6600
L137.1600 72.3900
" />
</g>
<g style="fill:#006464; fill-opacity:0.0; 
stroke:#006464; stroke-width:0.1524; stroke-opacity:1; 
stroke-linecap:round; stroke-linejoin:round;">
<text x="134.0311" y="76.2405"
textLength="2.6827" font-size="1.6933" lengthAdjust="spacingAndGlyphs"
text-anchor="middle" opacity="0">R8</text>
<g class="stroked-text"><desc>R8</desc>
<path d="M133.8194 76.1850
L133.3961 75.5803
" />
<path d="M133.0937 76.1850
L133.0937 74.9150
" />
<path d="M133.0937 74.9150
L133.5775 74.9150
" />
<path d="M133.5775 74.9150
L133.6985 74.9755
" />
<path d="M133.6985 74.9755
L133.7590 75.0360
" />
<path d="M133.7590 75.0360
L133.8194 75.1569
" />
<path d="M133.8194 75.1569
L133.8194 75.3384
" />
<path d="M133.8194 75.3384
L133.7590 75.4593
" />
<path d="M133.7590 75.4593
L133.6985 75.5198
" />
<path d="M133.6985 75.5198
L133.5775 75.5803
" />
<path d="M133.5775 75.5803
L133.0937 75.5803
" />
<path d="M134.5452 75.4593
L134.4242 75.3988
" />
<path d="M134.4242 75.3988
L134.3637 75.3384
" />
<path d="M134.3637 75.3384
L134.3033 75.2174
" />
<path d="M134.3033 75.2174
L134.3033 75.1569
" />
<path d="M134.3033 75.1569
L134.3637 75.0360
" />
<path d="M134.3637 75.0360
L134.4242 74.9755
" />
<path d="M134.4242 74.9755
L134.5452 74.9150
" />
<path d="M134.5452 74.9150
L134.7871 74.9150
" />
<path d="M134.7871 74.9150
L134.9080 74.9755
" />
<path d="M134.9080 74.9755
L134.9685 75.0360
" />
<path d="M134.9685 75.0360
L135.0290 75.1569
" />
<path d="M135.0290 75.1569
L135.0290 75.2174
" />
<path d="M135.0290 75.2174
L134.9685 75.3384
" />
<path d="M134.9685 75.3384
L134.9080 75.3988
" />
<path d="M134.9080 75.3988
L134.7871 75.4593
" />
<path d="M134.7871 75.4593
L134.5452 75.4593
" />
<path d="M134.5452 75.4593
L134.4242 75.5198
" />
<path d="M134.4242 75.5198
L134.3637 75.5803
" />
<path d="M134.3637 75.5803
L134.3033 75.7012
" />
<path d="M134.3033 75.7012
L134.3033 75.9431
" />
<path d="M134.3033 75.9431
L134.3637 76.0641
" />
<path d="M134.3637 76.0641
L134.4242 76.1246
" />
<path d="M134.4242 76.1246
L134.5452 76.1850
" />
<path d="M134.5452 76.1850
L134.7871 76.1850
" />
<path d="M134.7871 76.1850
L134.9080 76.1246
" />
<path d="M134.9080 76.1246
L134.9685 76.0641
" />
<path d="M134.9685 76.0641
L135.0290 75.9431
" />
<path d="M135.0290 75.9431
L135.0290 75.7012
" />
<path d="M135.0290 75.7012
L134.9685 75.5803
" />
<path d="M134.9685 75.5803
L134.9080 75.5198
" />
<path d="M134.9080 75.5198
L134.7871 75.4593
" />
</g><text x="134.0311" y="78.0027"
textLength="2.6827" font-size="1.6933" lengthAdjust="spacingAndGlyphs"
text-anchor="middle" opacity="0">1K</text>
<g class="stroked-text"><desc>1K</desc>
<path d="M133.7590 77.9472
L133.0333 77.9472
" />
<path d="M133.3961 77.9472
L133.3961 76.6772
" />
<path d="M133.3961 76.6772
L133.2752 76.8587
" />
<path d="M133.2752 76.8587
L133.1542 76.9796
" />
<path d="M133.1542 76.9796
L133.0333 77.0401
" />
<path d="M134.3032 77.9472
L134.3032 76.6772
" />
<path d="M135.0289 77.9472
L134.4847 77.2215
" />
<path d="M135.0289 76.6772
L134.3032 77.4029
" />
</g></g>
</g>
<g style="fill:#006464; fill-opacity:0.0; 
stroke:#006464; stroke-width:0.1524; stroke-opacity:1; 
stroke-linecap:round; stroke-linejoin:round;">
<g >
</g>
<g style="fill:#840000; fill-opacity:0.0; 
stroke:#840000; stroke-width:0.1524; stroke-opacity:1; 
stroke-linecap:round; stroke-linejoin:round;">
</g>
<g style="fill:#840000; fill-opacity:0.0; 
stroke:#840000; stroke-width:0.2540; stroke-opacity:1; 
stroke-linecap:round; stroke-linejoin:round;">
<rect x="129.540000" y="87.884000" width="5.080000" height="2.032000" rx="0.000000" />
</g>
<g style="fill:#840000; fill-opacity:0.0; 
stroke:#840000; stroke-width:0.1524; stroke-opacity:1; 
stroke-linecap:round; stroke-linejoin:round;">
<path d="M129.5400 88.9000
L128.2700 88.9000
" />
<path d="M134.6200 88.9000
L135.8900 88.9000
" />
</g>
<g style="fill:#006464; fill-opacity:0.0; 
stroke:#006464; stroke-width:0.1524; stroke-opacity:1; 
stroke-linecap:round; stroke-linejoin:round;">
<text x="132.0799" y="85.6869"
textLength="2.6827" font-size="1.6933" lengthAdjust="spacingAndGlyphs"
text-anchor="middle" opacity="0">R5</text>
<g class="stroked-text"><desc>R5</desc>
<path d="M131.8682 85.6314
L131.4449 85.0267
" />
<path d="M131.1425 85.6314
L131.1425 84.3614
" />
<path d="M131.1425 84.3614
L131.6263 84.3614
" />
<path d="M131.6263 84.3614
L131.7473 84.4219
" />
<path d="M131.7473 84.4219
L131.8078 84.4824
" />
<path d="M131.8078 84.4824
L131.8682 84.6033
" />
<path d="M131.8682 84.6033
L131.8682 84.7848
" />
<path d="M131.8682 84.7848
L131.8078 84.9057
" />
<path d="M131.8078 84.9057
L131.7473 84.9662
" />
<path d="M131.7473 84.9662
L131.6263 85.0267
" />
<path d="M131.6263 85.0267
L131.1425 85.0267
" />
<path d="M133.0173 84.3614
L132.4125 84.3614
" />
<path d="M132.4125 84.3614
L132.3521 84.9662
" />
<path d="M132.3521 84.9662
L132.4125 84.9057
" />
<path d="M132.4125 84.9057
L132.5335 84.8452
" />
<path d="M132.5335 84.8452
L132.8359 84.8452
" />
<path d="M132.8359 84.8452
L132.9568 84.9057
" />
<path d="M132.9568 84.9057
L133.0173 84.9662
" />
<path d="M133.0173 84.9662
L133.0778 85.0871
" />
<path d="M133.0778 85.0871
L133.0778 85.3895
" />
<path d="M133.0778 85.3895
L133.0173 85.5105
" />
<path d="M133.0173 85.5105
L132.9568 85.5710
" />
<path d="M132.9568 85.5710
L132.8359 85.6314
" />
<path d="M132.8359 85.6314
L132.5335 85.6314
" />
<path d="M132.5335 85.6314
L132.4125 85.5710
" />
<path d="M132.4125 85.5710
L132.3521 85.5105
" />
</g><text x="132.0799" y="87.4491"
textLength="2.6827" font-size="1.6933" lengthAdjust="spacingAndGlyphs"
text-anchor="middle" opacity="0">1K</text>
<g class="stroked-text"><desc>1K</desc>
<path d="M131.8078 87.3936
L131.0821 87.3936
" />
<path d="M131.4449 87.3936
L131.4449 86.1236
" />
<path d="M131.4449 86.1236
L131.3240 86.3051
" />
<path d="M131.3240 86.3051
L131.2030 86.4260
" />
<path d="M131.2030 86.4260
L131.0821 86.4865
" />
<path d="M132.3520 87.3936
L132.3520 86.1236
" />
<path d="M133.0777 87.3936
L132.5335 86.6679
" />
<path d="M133.0777 86.1236
L132.3520 86.8493
" />
</g></g>
</g>
<g style="fill:#006464; fill-opacity:0.0; 
stroke:#006464; stroke-width:0.1588; stroke-opacity:1; 
stroke-linecap:round; stroke-linejoin:round;">
</g>
<g style="fill:#006464; fill-opacity:0.0; 
stroke:#006464; stroke-width:0.1524; stroke-opacity:1; 
stroke-linecap:round; stroke-linejoin:round;">
</g>
<g style="fill:#725600; fill-opacity:0.0; 
stroke:#725600; stroke-width:0.1524; stroke-opacity:1; 
stroke-linecap:round; stroke-linejoin:round;">
<text x="153.8605" y="89.5350"
textLength="3.2269" font-size="1.6933" lengthAdjust="spacingAndGlyphs"
text-anchor="start" opacity="0">out</text>
<g class="stroked-text"><desc>out</desc>
<path d="M154.4445 89.4795
L154.3235 89.4191
" />
<path d="M154.3235 89.4191
L154.2630 89.3586
" />
<path d="M154.2630 89.3586
L154.2026 89.2376
" />
<path d="M154.2026 89.2376
L154.2026 88.8748
" />
<path d="M154.2026 88.8748
L154.2630 88.7538
" />
<path d="M154.2630 88.7538
L154.3235 88.6933
" />
<path d="M154.3235 88.6933
L154.4445 88.6329
" />
<path d="M154.4445 88.6329
L154.6259 88.6329
" />
<path d="M154.6259 88.6329
L154.7468 88.6933
" />
<path d="M154.7468 88.6933
L154.8073 88.7538
" />
<path d="M154.8073 88.7538
L154.8678 88.8748
" />
<path d="M154.8678 88.8748
L154.8678 89.2376
" />
<path d="M154.8678 89.2376
L154.8073 89.3586
" />
<path d="M154.8073 89.3586
L154.7468 89.4191
" />
<path d="M154.7468 89.4191
L154.6259 89.4795
" />
<path d="M154.6259 89.4795
L154.4445 89.4795
" />
<path d="M155.9563 88.6329
L155.9563 89.4795
" />
<path d="M155.4120 88.6329
L155.4120 89.2981
" />
<path d="M155.4120 89.2981
L155.4725 89.4191
" />
<path d="M155.4725 89.4191
L155.5935 89.4795
" />
<path d="M155.5935 89.4795
L155.7749 89.4795
" />
<path d="M155.7749 89.4795
L155.8958 89.4191
" />
<path d="M155.8958 89.4191
L155.9563 89.3586
" />
<path d="M156.3796 88.6329
L156.8634 88.6329
" />
<path d="M156.5610 88.2095
L156.5610 89.2981
" />
<path d="M156.5610 89.2981
L156.6215 89.4191
" />
<path d="M156.6215 89.4191
L156.7425 89.4795
" />
<path d="M156.7425 89.4795
L156.8634 89.4795
" />
</g><path style="fill:#725600; fill-opacity:0.0; 
stroke:#725600; stroke-width:0.1524; stroke-opacity:1; 
stroke-linecap:round; stroke-linejoin:round;fill:none"
d="M 153.6700,88.9000
153.0350,88.2650
152.4000,88.2650
152.4000,89.5350
153.0350,89.5350
Z" /> 
</g>
<g style="fill:#725600; fill-opacity:0.0; 
stroke:#725600; stroke-width:0.1588; stroke-opacity:1; 
stroke-linecap:round; stroke-linejoin:round;">
</g>
<g style="fill:#725600; fill-opacity:0.0; 
stroke:#725600; stroke-width:0.1524; stroke-opacity:1; 
stroke-linecap:round; stroke-linejoin:round;">
<text x="125.5395" y="89.5350"
textLength="1.9570" font-size="1.6933" lengthAdjust="spacingAndGlyphs"
text-anchor="end" opacity="0">in</text>
<g class="stroked-text"><desc>in</desc>
<path d="M123.9878 89.4795
L123.9878 88.6329
" />
<path d="M123.9878 88.2095
L123.9274 88.2700
" />
<path d="M123.9274 88.2700
L123.9878 88.3305
" />
<path d="M123.9878 88.3305
L124.0483 88.2700
" />
<path d="M124.0483 88.2700
L123.9878 88.2095
" />
<path d="M123.9878 88.2095
L123.9878 88.3305
" />
<path d="M124.5926 88.6329
L124.5926 89.4795
" />
<path d="M124.5926 88.7538
L124.6531 88.6933
" />
<path d="M124.6531 88.6933
L124.7741 88.6329
" />
<path d="M124.7741 88.6329
L124.9555 88.6329
" />
<path d="M124.9555 88.6329
L125.0764 88.6933
" />
<path d="M125.0764 88.6933
L125.1369 88.8143
" />
<path d="M125.1369 88.8143
L125.1369 89.4795
" />
</g><path style="fill:#725600; fill-opacity:0.0; 
stroke:#725600; stroke-width:0.1524; stroke-opacity:1; 
stroke-linecap:round; stroke-linejoin:round;fill:none"
d="M 127.0000,88.9000
126.3650,88.2650
125.7300,88.2650
125.7300,89.5350
126.3650,89.5350
Z" /> 
</g>
<g style="fill:#725600; fill-opacity:0.0; 
stroke:#725600; stroke-width:0.1588; stroke-opacity:1; 
stroke-linecap:round; stroke-linejoin:round;">
</g>
<g style="fill:#725600; fill-opacity:0.0; 
stroke:#725600; stroke-width:0.1524; stroke-opacity:1; 
stroke-linecap:round; stroke-linejoin:round;">
</g>
<g style="fill:#0F0F0F; fill-opacity:0.0; 
stroke:#0F0F0F; stroke-width:0.1524; stroke-opacity:1; 
stroke-linecap:round; stroke-linejoin:round;">
<text x="137.1600" y="72.0407"
textLength="4.7388" font-size="1.6933" lengthAdjust="spacingAndGlyphs"
text-anchor="start" opacity="0">node</text>
<g class="stroked-text"><desc>node</desc>
<path d="M137.5625 71.0306
L137.5625 71.8772
" />
<path d="M137.5625 71.1515
L137.6230 71.0910
" />
<path d="M137.6230 71.0910
L137.7440 71.0306
" />
<path d="M137.7440 71.0306
L137.9254 71.0306
" />
<path d="M137.9254 71.0306
L138.0463 71.0910
" />
<path d="M138.0463 71.0910
L138.1068 71.2120
" />
<path d="M138.1068 71.2120
L138.1068 71.8772
" />
<path d="M138.8930 71.8772
L138.7720 71.8168
" />
<path d="M138.7720 71.8168
L138.7115 71.7563
" />
<path d="M138.7115 71.7563
L138.6511 71.6353
" />
<path d="M138.6511 71.6353
L138.6511 71.2725
" />
<path d="M138.6511 71.2725
L138.7115 71.1515
" />
<path d="M138.7115 71.1515
L138.7720 71.0910
" />
<path d="M138.7720 71.0910
L138.8930 71.0306
" />
<path d="M138.8930 71.0306
L139.0744 71.0306
" />
<path d="M139.0744 71.0306
L139.1953 71.0910
" />
<path d="M139.1953 71.0910
L139.2558 71.1515
" />
<path d="M139.2558 71.1515
L139.3163 71.2725
" />
<path d="M139.3163 71.2725
L139.3163 71.6353
" />
<path d="M139.3163 71.6353
L139.2558 71.7563
" />
<path d="M139.2558 71.7563
L139.1953 71.8168
" />
<path d="M139.1953 71.8168
L139.0744 71.8772
" />
<path d="M139.0744 71.8772
L138.8930 71.8772
" />
<path d="M140.4048 71.8772
L140.4048 70.6072
" />
<path d="M140.4048 71.8168
L140.2839 71.8772
" />
<path d="M140.2839 71.8772
L140.0420 71.8772
" />
<path d="M140.0420 71.8772
L139.9210 71.8168
" />
<path d="M139.9210 71.8168
L139.8605 71.7563
" />
<path d="M139.8605 71.7563
L139.8001 71.6353
" />
<path d="M139.8001 71.6353
L139.8001 71.2725
" />
<path d="M139.8001 71.2725
L139.8605 71.1515
" />
<path d="M139.8605 71.1515
L139.9210 71.0910
" />
<path d="M139.9210 71.0910
L140.0420 71.0306
" />
<path d="M140.0420 71.0306
L140.2839 71.0306
" />
<path d="M140.2839 71.0306
L140.4048 71.0910
" />
<path d="M141.4933 71.8168
L141.3724 71.8772
" />
<path d="M141.3724 71.8772
L141.1305 71.8772
" />
<path d="M141.1305 71.8772
L141.0095 71.8168
" />
<path d="M141.0095 71.8168
L140.9491 71.6958
" />
<path d="M140.9491 71.6958
L140.9491 71.2120
" />
<path d="M140.9491 71.2120
L141.0095 71.0910
" />
<path d="M141.0095 71.0910
L141.1305 71.0306
" />
<path d="M141.1305 71.0306
L141.3724 71.0306
" />
<path d="M141.3724 71.0306
L141.4933 71.0910
" />
<path d="M141.4933 71.0910
L141.5538 71.2120
" />
<path d="M141.5538 71.2120
L141.5538 71.3329
" />
<path d="M141.5538 71.3329
L140.9491 71.4539
" />
</g></g>
<g style="fill:#009600; fill-opacity:0.0; 
stroke:#009600; stroke-width:0.1524; stroke-opacity:1; 
stroke-linecap:round; stroke-linejoin:round;">
<path d="M135.8900 88.9000
L137.1600 88.9000
" />
<path d="M142.2400 88.9000
L139.7000 88.9000
" />
<path d="M139.7000 92.7100
L139.7000 88.9000
" />
<path d="M139.7000 101.6000
L139.7000 100.3300
" />
<path d="M137.1600 88.9000
L139.7000 88.9000
" />
<path d="M127.0000 88.9000
L128.2700 88.9000
" />
<path d="M151.1300 88.9000
L152.4000 88.9000
" />
<path d="M137.1600 80.0100
L137.1600 88.9000
" />
<path d="M137.1600 72.3900
L142.2400 72.3900
" />
<path d="M142.2400 80.0100
L142.2400 88.9000
" />
<path d="M143.5100 88.9000
L142.2400 88.9000
" />
</g>
<g style="fill:#009600; fill-opacity:1.0000; 
stroke:#009600; stroke-width:0.1524; stroke-opacity:1; 
stroke-linecap:round; stroke-linejoin:round;">
<circle cx="142.2400" cy="88.9000" r="0.4572" /> 
<circle cx="139.7000" cy="88.9000" r="0.4572" /> 
<circle cx="137.1600" cy="88.9000" r="0.4572" /> 
</g> 
</svg>
