<?xml version="1.0" standalone="no"?>
 <!DOCTYPE svg PUBLIC "-//W3C//DTD SVG 1.1//EN" 
 "http://www.w3.org/Graphics/SVG/1.1/DTD/svg11.dtd"> 
<svg
  xmlns:svg="http://www.w3.org/2000/svg"
  xmlns="http://www.w3.org/2000/svg"
  xmlns:xlink="http://www.w3.org/1999/xlink"
  version="1.1"
  width="297.0022mm" height="210.0072mm" viewBox="0.0000 0.0000 297.0022 210.0072">
<title>SVG Image created as subsheets-subsheet1.svg date 2024/04/14 20:53:38 </title>
  <desc>Image generated by Eeschema-SVG </desc>
<g style="fill:#000000; fill-opacity:1.0000;stroke:#000000; stroke-opacity:1.0000;
stroke-linecap:round; stroke-linejoin:round;"
 transform="translate(0 0) scale(1 1)">
</g>
<g style="fill:#000000; fill-opacity:0.0; 
stroke:#000000; stroke-width:0.1524; stroke-opacity:1; 
stroke-linecap:round; stroke-linejoin:round;">
</g>
<g style="fill:#000000; fill-opacity:0.0; 
stroke:#000000; stroke-width:0.1588; stroke-opacity:1; 
stroke-linecap:round; stroke-linejoin:round;">
</g>
<g style="fill:#000000; fill-opacity:0.0; 
stroke:#000000; stroke-width:0.1524; stroke-opacity:1; 
stroke-linecap:round; stroke-linejoin:round;">
</g>
<g style="fill:#000000; fill-opacity:0.0; 
stroke:#000000; stroke-width:0.1588; stroke-opacity:1; 
stroke-linecap:round; stroke-linejoin:round;">
</g>
<g style="fill:#000000; fill-opacity:0.0; 
stroke:#000000; stroke-width:0.1524; stroke-opacity:1; 
stroke-linecap:round; stroke-linejoin:round;">
</g>
<g style="fill:#000000; fill-opacity:0.0; 
stroke:#000000; stroke-width:0.1588; stroke-opacity:1; 
stroke-linecap:round; stroke-linejoin:round;">
</g>
<g style="fill:#000000; fill-opacity:0.0; 
stroke:#000000; stroke-width:0.1524; stroke-opacity:1; 
stroke-linecap:round; stroke-linejoin:round;">
<g >
</g>
<g style="fill:#840000; fill-opacity:0.0; 
stroke:#840000; stroke-width:0.1524; stroke-opacity:1; 
stroke-linecap:round; stroke-linejoin:round;">
</g>
<g style="fill:#840000; fill-opacity:0.0; 
stroke:#840000; stroke-width:0.2540; stroke-opacity:1; 
stroke-linecap:round; stroke-linejoin:round;">
<rect x="166.370000" y="86.614000" width="5.080000" height="2.032000" rx="0.000000" />
</g>
<g style="fill:#840000; fill-opacity:0.0; 
stroke:#840000; stroke-width:0.1524; stroke-opacity:1; 
stroke-linecap:round; stroke-linejoin:round;">
<path d="M166.3700 87.6300
L165.1000 87.6300
" />
<path d="M171.4500 87.6300
L172.7200 87.6300
" />
</g>
<g style="fill:#006464; fill-opacity:0.0; 
stroke:#006464; stroke-width:0.1524; stroke-opacity:1; 
stroke-linecap:round; stroke-linejoin:round;">
<text x="168.9099" y="81.9150"
textLength="2.6827" font-size="1.6933" lengthAdjust="spacingAndGlyphs"
text-anchor="middle" opacity="0">R6</text>
<g class="stroked-text"><desc>R6</desc>
<path d="M168.6982 81.8595
L168.2749 81.2548
" />
<path d="M167.9725 81.8595
L167.9725 80.5895
" />
<path d="M167.9725 80.5895
L168.4563 80.5895
" />
<path d="M168.4563 80.5895
L168.5773 80.6500
" />
<path d="M168.5773 80.6500
L168.6378 80.7105
" />
<path d="M168.6378 80.7105
L168.6982 80.8314
" />
<path d="M168.6982 80.8314
L168.6982 81.0129
" />
<path d="M168.6982 81.0129
L168.6378 81.1338
" />
<path d="M168.6378 81.1338
L168.5773 81.1943
" />
<path d="M168.5773 81.1943
L168.4563 81.2548
" />
<path d="M168.4563 81.2548
L167.9725 81.2548
" />
<path d="M169.7868 80.5895
L169.5449 80.5895
" />
<path d="M169.5449 80.5895
L169.4240 80.6500
" />
<path d="M169.4240 80.6500
L169.3635 80.7105
" />
<path d="M169.3635 80.7105
L169.2425 80.8919
" />
<path d="M169.2425 80.8919
L169.1821 81.1338
" />
<path d="M169.1821 81.1338
L169.1821 81.6176
" />
<path d="M169.1821 81.6176
L169.2425 81.7386
" />
<path d="M169.2425 81.7386
L169.3030 81.7991
" />
<path d="M169.3030 81.7991
L169.4240 81.8595
" />
<path d="M169.4240 81.8595
L169.6659 81.8595
" />
<path d="M169.6659 81.8595
L169.7868 81.7991
" />
<path d="M169.7868 81.7991
L169.8473 81.7386
" />
<path d="M169.8473 81.7386
L169.9078 81.6176
" />
<path d="M169.9078 81.6176
L169.9078 81.3152
" />
<path d="M169.9078 81.3152
L169.8473 81.1943
" />
<path d="M169.8473 81.1943
L169.7868 81.1338
" />
<path d="M169.7868 81.1338
L169.6659 81.0733
" />
<path d="M169.6659 81.0733
L169.4240 81.0733
" />
<path d="M169.4240 81.0733
L169.3030 81.1338
" />
<path d="M169.3030 81.1338
L169.2425 81.1943
" />
<path d="M169.2425 81.1943
L169.1821 81.3152
" />
</g><text x="168.9099" y="84.4550"
textLength="3.8317" font-size="1.6933" lengthAdjust="spacingAndGlyphs"
text-anchor="middle" opacity="0">100</text>
<g class="stroked-text"><desc>100</desc>
<path d="M168.0633 84.3995
L167.3376 84.3995
" />
<path d="M167.7004 84.3995
L167.7004 83.1295
" />
<path d="M167.7004 83.1295
L167.5795 83.3110
" />
<path d="M167.5795 83.3110
L167.4585 83.4319
" />
<path d="M167.4585 83.4319
L167.3376 83.4924
" />
<path d="M168.8494 83.1295
L168.9704 83.1295
" />
<path d="M168.9704 83.1295
L169.0913 83.1900
" />
<path d="M169.0913 83.1900
L169.1518 83.2505
" />
<path d="M169.1518 83.2505
L169.2123 83.3714
" />
<path d="M169.2123 83.3714
L169.2728 83.6133
" />
<path d="M169.2728 83.6133
L169.2728 83.9157
" />
<path d="M169.2728 83.9157
L169.2123 84.1576
" />
<path d="M169.2123 84.1576
L169.1518 84.2786
" />
<path d="M169.1518 84.2786
L169.0913 84.3391
" />
<path d="M169.0913 84.3391
L168.9704 84.3995
" />
<path d="M168.9704 84.3995
L168.8494 84.3995
" />
<path d="M168.8494 84.3995
L168.7285 84.3391
" />
<path d="M168.7285 84.3391
L168.6680 84.2786
" />
<path d="M168.6680 84.2786
L168.6075 84.1576
" />
<path d="M168.6075 84.1576
L168.5471 83.9157
" />
<path d="M168.5471 83.9157
L168.5471 83.6133
" />
<path d="M168.5471 83.6133
L168.6075 83.3714
" />
<path d="M168.6075 83.3714
L168.6680 83.2505
" />
<path d="M168.6680 83.2505
L168.7285 83.1900
" />
<path d="M168.7285 83.1900
L168.8494 83.1295
" />
<path d="M170.0589 83.1295
L170.1799 83.1295
" />
<path d="M170.1799 83.1295
L170.3008 83.1900
" />
<path d="M170.3008 83.1900
L170.3613 83.2505
" />
<path d="M170.3613 83.2505
L170.4218 83.3714
" />
<path d="M170.4218 83.3714
L170.4823 83.6133
" />
<path d="M170.4823 83.6133
L170.4823 83.9157
" />
<path d="M170.4823 83.9157
L170.4218 84.1576
" />
<path d="M170.4218 84.1576
L170.3613 84.2786
" />
<path d="M170.3613 84.2786
L170.3008 84.3391
" />
<path d="M170.3008 84.3391
L170.1799 84.3995
" />
<path d="M170.1799 84.3995
L170.0589 84.3995
" />
<path d="M170.0589 84.3995
L169.9380 84.3391
" />
<path d="M169.9380 84.3391
L169.8775 84.2786
" />
<path d="M169.8775 84.2786
L169.8170 84.1576
" />
<path d="M169.8170 84.1576
L169.7566 83.9157
" />
<path d="M169.7566 83.9157
L169.7566 83.6133
" />
<path d="M169.7566 83.6133
L169.8170 83.3714
" />
<path d="M169.8170 83.3714
L169.8775 83.2505
" />
<path d="M169.8775 83.2505
L169.9380 83.1900
" />
<path d="M169.9380 83.1900
L170.0589 83.1295
" />
</g></g>
</g>
<g style="fill:#006464; fill-opacity:0.0; 
stroke:#006464; stroke-width:0.1524; stroke-opacity:1; 
stroke-linecap:round; stroke-linejoin:round;">
<g >
</g>
<g style="fill:#840000; fill-opacity:0.0; 
stroke:#840000; stroke-width:0.1524; stroke-opacity:1; 
stroke-linecap:round; stroke-linejoin:round;">
<path style="fill:#840000; fill-opacity:0.0; 
stroke:#840000; stroke-width:0.1524; stroke-opacity:1; 
stroke-linecap:round; stroke-linejoin:round;fill:none"
d="M 161.2900,99.6950
161.2900,100.9650
162.5600,100.9650
161.2900,102.2350
160.0200,100.9650
161.2900,100.9650
" /> 
</g>
<g style="fill:#006464; fill-opacity:0.0; 
stroke:#006464; stroke-width:0.1524; stroke-opacity:1; 
stroke-linecap:round; stroke-linejoin:round;">
<text x="161.2900" y="104.1400"
textLength="4.0737" font-size="1.6933" lengthAdjust="spacingAndGlyphs"
text-anchor="middle" opacity="0">GND</text>
<g class="stroked-text"><desc>GND</desc>
<path d="M160.3224 102.8750
L160.2014 102.8145
" />
<path d="M160.2014 102.8145
L160.0200 102.8145
" />
<path d="M160.0200 102.8145
L159.8386 102.8750
" />
<path d="M159.8386 102.8750
L159.7176 102.9960
" />
<path d="M159.7176 102.9960
L159.6571 103.1169
" />
<path d="M159.6571 103.1169
L159.5967 103.3588
" />
<path d="M159.5967 103.3588
L159.5967 103.5402
" />
<path d="M159.5967 103.5402
L159.6571 103.7821
" />
<path d="M159.6571 103.7821
L159.7176 103.9031
" />
<path d="M159.7176 103.9031
L159.8386 104.0241
" />
<path d="M159.8386 104.0241
L160.0200 104.0845
" />
<path d="M160.0200 104.0845
L160.1409 104.0845
" />
<path d="M160.1409 104.0845
L160.3224 104.0241
" />
<path d="M160.3224 104.0241
L160.3828 103.9636
" />
<path d="M160.3828 103.9636
L160.3828 103.5402
" />
<path d="M160.3828 103.5402
L160.1409 103.5402
" />
<path d="M160.9271 104.0845
L160.9271 102.8145
" />
<path d="M160.9271 102.8145
L161.6528 104.0845
" />
<path d="M161.6528 104.0845
L161.6528 102.8145
" />
<path d="M162.2576 104.0845
L162.2576 102.8145
" />
<path d="M162.2576 102.8145
L162.5600 102.8145
" />
<path d="M162.5600 102.8145
L162.7414 102.8750
" />
<path d="M162.7414 102.8750
L162.8624 102.9960
" />
<path d="M162.8624 102.9960
L162.9229 103.1169
" />
<path d="M162.9229 103.1169
L162.9833 103.3588
" />
<path d="M162.9833 103.3588
L162.9833 103.5402
" />
<path d="M162.9833 103.5402
L162.9229 103.7821
" />
<path d="M162.9229 103.7821
L162.8624 103.9031
" />
<path d="M162.8624 103.9031
L162.7414 104.0241
" />
<path d="M162.7414 104.0241
L162.5600 104.0845
" />
<path d="M162.5600 104.0845
L162.2576 104.0845
" />
</g></g>
</g>
<g style="fill:#006464; fill-opacity:0.0; 
stroke:#006464; stroke-width:0.1524; stroke-opacity:1; 
stroke-linecap:round; stroke-linejoin:round;">
<g >
</g>
<g style="fill:#840000; fill-opacity:0.0; 
stroke:#840000; stroke-width:0.1524; stroke-opacity:1; 
stroke-linecap:round; stroke-linejoin:round;">
</g>
<g style="fill:#840000; fill-opacity:0.0; 
stroke:#840000; stroke-width:0.5080; stroke-opacity:1; 
stroke-linecap:round; stroke-linejoin:round;">
<path style="fill:#840000; fill-opacity:0.0; 
stroke:#840000; stroke-width:0.5080; stroke-opacity:1; 
stroke-linecap:round; stroke-linejoin:round;fill:none"
d="M 159.2580,96.0120
163.3220,96.0120
" /> 
<path style="fill:#840000; fill-opacity:0.0; 
stroke:#840000; stroke-width:0.5080; stroke-opacity:1; 
stroke-linecap:round; stroke-linejoin:round;fill:none"
d="M 159.2580,94.4880
163.3220,94.4880
" /> 
</g>
<g style="fill:#840000; fill-opacity:0.0; 
stroke:#840000; stroke-width:0.1524; stroke-opacity:1; 
stroke-linecap:round; stroke-linejoin:round;">
<path d="M161.2900 94.2340
L161.2900 91.4400
" />
<path d="M161.2900 96.2660
L161.2900 99.0600
" />
</g>
<g style="fill:#006464; fill-opacity:0.0; 
stroke:#006464; stroke-width:0.1524; stroke-opacity:1; 
stroke-linecap:round; stroke-linejoin:round;">
<text x="166.4509" y="94.6150"
textLength="2.6827" font-size="1.6933" lengthAdjust="spacingAndGlyphs"
text-anchor="middle" opacity="0">C2</text>
<g class="stroked-text"><desc>C2</desc>
<path d="M166.2392 94.4386
L166.1788 94.4991
" />
<path d="M166.1788 94.4991
L165.9973 94.5595
" />
<path d="M165.9973 94.5595
L165.8764 94.5595
" />
<path d="M165.8764 94.5595
L165.6950 94.4991
" />
<path d="M165.6950 94.4991
L165.5740 94.3781
" />
<path d="M165.5740 94.3781
L165.5135 94.2571
" />
<path d="M165.5135 94.2571
L165.4531 94.0152
" />
<path d="M165.4531 94.0152
L165.4531 93.8338
" />
<path d="M165.4531 93.8338
L165.5135 93.5919
" />
<path d="M165.5135 93.5919
L165.5740 93.4710
" />
<path d="M165.5740 93.4710
L165.6950 93.3500
" />
<path d="M165.6950 93.3500
L165.8764 93.2895
" />
<path d="M165.8764 93.2895
L165.9973 93.2895
" />
<path d="M165.9973 93.2895
L166.1788 93.3500
" />
<path d="M166.1788 93.3500
L166.2392 93.4105
" />
<path d="M166.7231 93.4105
L166.7835 93.3500
" />
<path d="M166.7835 93.3500
L166.9045 93.2895
" />
<path d="M166.9045 93.2895
L167.2069 93.2895
" />
<path d="M167.2069 93.2895
L167.3278 93.3500
" />
<path d="M167.3278 93.3500
L167.3883 93.4105
" />
<path d="M167.3883 93.4105
L167.4488 93.5314
" />
<path d="M167.4488 93.5314
L167.4488 93.6524
" />
<path d="M167.4488 93.6524
L167.3883 93.8338
" />
<path d="M167.3883 93.8338
L166.6626 94.5595
" />
<path d="M166.6626 94.5595
L167.4488 94.5595
" />
</g><text x="166.3904" y="97.1550"
textLength="2.5617" font-size="1.6933" lengthAdjust="spacingAndGlyphs"
text-anchor="middle" opacity="0">1u</text>
<g class="stroked-text"><desc>1u</desc>
<path d="M166.1788 97.0995
L165.4531 97.0995
" />
<path d="M165.8159 97.0995
L165.8159 95.8295
" />
<path d="M165.8159 95.8295
L165.6950 96.0110
" />
<path d="M165.6950 96.0110
L165.5740 96.1319
" />
<path d="M165.5740 96.1319
L165.4531 96.1924
" />
<path d="M167.2673 96.2529
L167.2673 97.0995
" />
<path d="M166.7230 96.2529
L166.7230 96.9181
" />
<path d="M166.7230 96.9181
L166.7835 97.0391
" />
<path d="M166.7835 97.0391
L166.9045 97.0995
" />
<path d="M166.9045 97.0995
L167.0859 97.0995
" />
<path d="M167.0859 97.0995
L167.2068 97.0391
" />
<path d="M167.2068 97.0391
L167.2673 96.9786
" />
</g></g>
</g>
<g style="fill:#006464; fill-opacity:0.0; 
stroke:#006464; stroke-width:0.1524; stroke-opacity:1; 
stroke-linecap:round; stroke-linejoin:round;">
<g >
</g>
<g style="fill:#840000; fill-opacity:0.0; 
stroke:#840000; stroke-width:0.1524; stroke-opacity:1; 
stroke-linecap:round; stroke-linejoin:round;">
</g>
<g style="fill:#840000; fill-opacity:0.0; 
stroke:#840000; stroke-width:0.2540; stroke-opacity:1; 
stroke-linecap:round; stroke-linejoin:round;">
<rect x="151.130000" y="86.614000" width="5.080000" height="2.032000" rx="0.000000" />
</g>
<g style="fill:#840000; fill-opacity:0.0; 
stroke:#840000; stroke-width:0.1524; stroke-opacity:1; 
stroke-linecap:round; stroke-linejoin:round;">
<path d="M151.1300 87.6300
L149.8600 87.6300
" />
<path d="M156.2100 87.6300
L157.4800 87.6300
" />
</g>
<g style="fill:#006464; fill-opacity:0.0; 
stroke:#006464; stroke-width:0.1524; stroke-opacity:1; 
stroke-linecap:round; stroke-linejoin:round;">
<text x="153.6699" y="81.9150"
textLength="2.6827" font-size="1.6933" lengthAdjust="spacingAndGlyphs"
text-anchor="middle" opacity="0">R4</text>
<g class="stroked-text"><desc>R4</desc>
<path d="M153.4582 81.8595
L153.0349 81.2548
" />
<path d="M152.7325 81.8595
L152.7325 80.5895
" />
<path d="M152.7325 80.5895
L153.2163 80.5895
" />
<path d="M153.2163 80.5895
L153.3373 80.6500
" />
<path d="M153.3373 80.6500
L153.3978 80.7105
" />
<path d="M153.3978 80.7105
L153.4582 80.8314
" />
<path d="M153.4582 80.8314
L153.4582 81.0129
" />
<path d="M153.4582 81.0129
L153.3978 81.1338
" />
<path d="M153.3978 81.1338
L153.3373 81.1943
" />
<path d="M153.3373 81.1943
L153.2163 81.2548
" />
<path d="M153.2163 81.2548
L152.7325 81.2548
" />
<path d="M154.5468 81.0129
L154.5468 81.8595
" />
<path d="M154.2444 80.5291
L153.9421 81.4362
" />
<path d="M153.9421 81.4362
L154.7282 81.4362
" />
</g><text x="153.6699" y="84.4550"
textLength="3.8317" font-size="1.6933" lengthAdjust="spacingAndGlyphs"
text-anchor="middle" opacity="0">100</text>
<g class="stroked-text"><desc>100</desc>
<path d="M152.8233 84.3995
L152.0976 84.3995
" />
<path d="M152.4604 84.3995
L152.4604 83.1295
" />
<path d="M152.4604 83.1295
L152.3395 83.3110
" />
<path d="M152.3395 83.3110
L152.2185 83.4319
" />
<path d="M152.2185 83.4319
L152.0976 83.4924
" />
<path d="M153.6094 83.1295
L153.7304 83.1295
" />
<path d="M153.7304 83.1295
L153.8513 83.1900
" />
<path d="M153.8513 83.1900
L153.9118 83.2505
" />
<path d="M153.9118 83.2505
L153.9723 83.3714
" />
<path d="M153.9723 83.3714
L154.0328 83.6133
" />
<path d="M154.0328 83.6133
L154.0328 83.9157
" />
<path d="M154.0328 83.9157
L153.9723 84.1576
" />
<path d="M153.9723 84.1576
L153.9118 84.2786
" />
<path d="M153.9118 84.2786
L153.8513 84.3391
" />
<path d="M153.8513 84.3391
L153.7304 84.3995
" />
<path d="M153.7304 84.3995
L153.6094 84.3995
" />
<path d="M153.6094 84.3995
L153.4885 84.3391
" />
<path d="M153.4885 84.3391
L153.4280 84.2786
" />
<path d="M153.4280 84.2786
L153.3675 84.1576
" />
<path d="M153.3675 84.1576
L153.3071 83.9157
" />
<path d="M153.3071 83.9157
L153.3071 83.6133
" />
<path d="M153.3071 83.6133
L153.3675 83.3714
" />
<path d="M153.3675 83.3714
L153.4280 83.2505
" />
<path d="M153.4280 83.2505
L153.4885 83.1900
" />
<path d="M153.4885 83.1900
L153.6094 83.1295
" />
<path d="M154.8189 83.1295
L154.9399 83.1295
" />
<path d="M154.9399 83.1295
L155.0608 83.1900
" />
<path d="M155.0608 83.1900
L155.1213 83.2505
" />
<path d="M155.1213 83.2505
L155.1818 83.3714
" />
<path d="M155.1818 83.3714
L155.2423 83.6133
" />
<path d="M155.2423 83.6133
L155.2423 83.9157
" />
<path d="M155.2423 83.9157
L155.1818 84.1576
" />
<path d="M155.1818 84.1576
L155.1213 84.2786
" />
<path d="M155.1213 84.2786
L155.0608 84.3391
" />
<path d="M155.0608 84.3391
L154.9399 84.3995
" />
<path d="M154.9399 84.3995
L154.8189 84.3995
" />
<path d="M154.8189 84.3995
L154.6980 84.3391
" />
<path d="M154.6980 84.3391
L154.6375 84.2786
" />
<path d="M154.6375 84.2786
L154.5770 84.1576
" />
<path d="M154.5770 84.1576
L154.5166 83.9157
" />
<path d="M154.5166 83.9157
L154.5166 83.6133
" />
<path d="M154.5166 83.6133
L154.5770 83.3714
" />
<path d="M154.5770 83.3714
L154.6375 83.2505
" />
<path d="M154.6375 83.2505
L154.6980 83.1900
" />
<path d="M154.6980 83.1900
L154.8189 83.1295
" />
</g></g>
</g>
<g style="fill:#006464; fill-opacity:0.0; 
stroke:#006464; stroke-width:0.1588; stroke-opacity:1; 
stroke-linecap:round; stroke-linejoin:round;">
</g>
<g style="fill:#006464; fill-opacity:0.0; 
stroke:#006464; stroke-width:0.1524; stroke-opacity:1; 
stroke-linecap:round; stroke-linejoin:round;">
</g>
<g style="fill:#725600; fill-opacity:0.0; 
stroke:#725600; stroke-width:0.1524; stroke-opacity:1; 
stroke-linecap:round; stroke-linejoin:round;">
<text x="175.4505" y="88.2650"
textLength="3.2269" font-size="1.6933" lengthAdjust="spacingAndGlyphs"
text-anchor="start" opacity="0">out</text>
<g class="stroked-text"><desc>out</desc>
<path d="M176.0345 88.2095
L175.9135 88.1491
" />
<path d="M175.9135 88.1491
L175.8530 88.0886
" />
<path d="M175.8530 88.0886
L175.7926 87.9676
" />
<path d="M175.7926 87.9676
L175.7926 87.6048
" />
<path d="M175.7926 87.6048
L175.8530 87.4838
" />
<path d="M175.8530 87.4838
L175.9135 87.4233
" />
<path d="M175.9135 87.4233
L176.0345 87.3629
" />
<path d="M176.0345 87.3629
L176.2159 87.3629
" />
<path d="M176.2159 87.3629
L176.3368 87.4233
" />
<path d="M176.3368 87.4233
L176.3973 87.4838
" />
<path d="M176.3973 87.4838
L176.4578 87.6048
" />
<path d="M176.4578 87.6048
L176.4578 87.9676
" />
<path d="M176.4578 87.9676
L176.3973 88.0886
" />
<path d="M176.3973 88.0886
L176.3368 88.1491
" />
<path d="M176.3368 88.1491
L176.2159 88.2095
" />
<path d="M176.2159 88.2095
L176.0345 88.2095
" />
<path d="M177.5463 87.3629
L177.5463 88.2095
" />
<path d="M177.0020 87.3629
L177.0020 88.0281
" />
<path d="M177.0020 88.0281
L177.0625 88.1491
" />
<path d="M177.0625 88.1491
L177.1835 88.2095
" />
<path d="M177.1835 88.2095
L177.3649 88.2095
" />
<path d="M177.3649 88.2095
L177.4858 88.1491
" />
<path d="M177.4858 88.1491
L177.5463 88.0886
" />
<path d="M177.9696 87.3629
L178.4534 87.3629
" />
<path d="M178.1510 86.9395
L178.1510 88.0281
" />
<path d="M178.1510 88.0281
L178.2115 88.1491
" />
<path d="M178.2115 88.1491
L178.3325 88.2095
" />
<path d="M178.3325 88.2095
L178.4534 88.2095
" />
</g><path style="fill:#725600; fill-opacity:0.0; 
stroke:#725600; stroke-width:0.1524; stroke-opacity:1; 
stroke-linecap:round; stroke-linejoin:round;fill:none"
d="M 175.2600,87.6300
174.6250,86.9950
173.9900,86.9950
173.9900,88.2650
174.6250,88.2650
Z" /> 
</g>
<g style="fill:#725600; fill-opacity:0.0; 
stroke:#725600; stroke-width:0.1588; stroke-opacity:1; 
stroke-linecap:round; stroke-linejoin:round;">
</g>
<g style="fill:#725600; fill-opacity:0.0; 
stroke:#725600; stroke-width:0.1524; stroke-opacity:1; 
stroke-linecap:round; stroke-linejoin:round;">
<text x="147.1295" y="88.2650"
textLength="1.9570" font-size="1.6933" lengthAdjust="spacingAndGlyphs"
text-anchor="end" opacity="0">in</text>
<g class="stroked-text"><desc>in</desc>
<path d="M145.5778 88.2095
L145.5778 87.3629
" />
<path d="M145.5778 86.9395
L145.5174 87.0000
" />
<path d="M145.5174 87.0000
L145.5778 87.0605
" />
<path d="M145.5778 87.0605
L145.6383 87.0000
" />
<path d="M145.6383 87.0000
L145.5778 86.9395
" />
<path d="M145.5778 86.9395
L145.5778 87.0605
" />
<path d="M146.1826 87.3629
L146.1826 88.2095
" />
<path d="M146.1826 87.4838
L146.2431 87.4233
" />
<path d="M146.2431 87.4233
L146.3641 87.3629
" />
<path d="M146.3641 87.3629
L146.5455 87.3629
" />
<path d="M146.5455 87.3629
L146.6664 87.4233
" />
<path d="M146.6664 87.4233
L146.7269 87.5443
" />
<path d="M146.7269 87.5443
L146.7269 88.2095
" />
</g><path style="fill:#725600; fill-opacity:0.0; 
stroke:#725600; stroke-width:0.1524; stroke-opacity:1; 
stroke-linecap:round; stroke-linejoin:round;fill:none"
d="M 148.5900,87.6300
147.9550,86.9950
147.3200,86.9950
147.3200,88.2650
147.9550,88.2650
Z" /> 
</g>
<g style="fill:#725600; fill-opacity:0.0; 
stroke:#725600; stroke-width:0.1588; stroke-opacity:1; 
stroke-linecap:round; stroke-linejoin:round;">
</g>
<g style="fill:#725600; fill-opacity:0.0; 
stroke:#725600; stroke-width:0.1524; stroke-opacity:1; 
stroke-linecap:round; stroke-linejoin:round;">
</g>
<g style="fill:#0F0F0F; fill-opacity:0.0; 
stroke:#0F0F0F; stroke-width:0.1524; stroke-opacity:1; 
stroke-linecap:round; stroke-linejoin:round;">
<text x="161.2900" y="87.2807"
textLength="3.6503" font-size="1.6933" lengthAdjust="spacingAndGlyphs"
text-anchor="start" opacity="0">mid</text>
<g class="stroked-text"><desc>mid</desc>
<path d="M161.6925 87.1172
L161.6925 86.2706
" />
<path d="M161.6925 86.3915
L161.7530 86.3310
" />
<path d="M161.7530 86.3310
L161.8740 86.2706
" />
<path d="M161.8740 86.2706
L162.0554 86.2706
" />
<path d="M162.0554 86.2706
L162.1763 86.3310
" />
<path d="M162.1763 86.3310
L162.2368 86.4520
" />
<path d="M162.2368 86.4520
L162.2368 87.1172
" />
<path d="M162.2368 86.4520
L162.2973 86.3310
" />
<path d="M162.2973 86.3310
L162.4182 86.2706
" />
<path d="M162.4182 86.2706
L162.5997 86.2706
" />
<path d="M162.5997 86.2706
L162.7206 86.3310
" />
<path d="M162.7206 86.3310
L162.7811 86.4520
" />
<path d="M162.7811 86.4520
L162.7811 87.1172
" />
<path d="M163.3858 87.1172
L163.3858 86.2706
" />
<path d="M163.3858 85.8472
L163.3254 85.9077
" />
<path d="M163.3254 85.9077
L163.3858 85.9682
" />
<path d="M163.3858 85.9682
L163.4463 85.9077
" />
<path d="M163.4463 85.9077
L163.3858 85.8472
" />
<path d="M163.3858 85.8472
L163.3858 85.9682
" />
<path d="M164.5349 87.1172
L164.5349 85.8472
" />
<path d="M164.5349 87.0568
L164.4140 87.1172
" />
<path d="M164.4140 87.1172
L164.1721 87.1172
" />
<path d="M164.1721 87.1172
L164.0511 87.0568
" />
<path d="M164.0511 87.0568
L163.9906 86.9963
" />
<path d="M163.9906 86.9963
L163.9302 86.8753
" />
<path d="M163.9302 86.8753
L163.9302 86.5125
" />
<path d="M163.9302 86.5125
L163.9906 86.3915
" />
<path d="M163.9906 86.3915
L164.0511 86.3310
" />
<path d="M164.0511 86.3310
L164.1721 86.2706
" />
<path d="M164.1721 86.2706
L164.4140 86.2706
" />
<path d="M164.4140 86.2706
L164.5349 86.3310
" />
</g></g>
<g style="fill:#009600; fill-opacity:0.0; 
stroke:#009600; stroke-width:0.1524; stroke-opacity:1; 
stroke-linecap:round; stroke-linejoin:round;">
<path d="M161.2900 91.4400
L161.2900 87.6300
" />
<path d="M172.7200 87.6300
L173.9900 87.6300
" />
<path d="M165.1000 87.6300
L161.2900 87.6300
" />
<path d="M148.5900 87.6300
L149.8600 87.6300
" />
<path d="M157.4800 87.6300
L161.2900 87.6300
" />
<path d="M161.2900 99.6950
L161.2900 99.0600
" />
</g>
<g style="fill:#009600; fill-opacity:1.0000; 
stroke:#009600; stroke-width:0.1524; stroke-opacity:1; 
stroke-linecap:round; stroke-linejoin:round;">
<circle cx="161.2900" cy="87.6300" r="0.4572" /> 
</g> 
</svg>
